<svg width="175" height="20" viewBox="0 0 175 20" fill="none" xmlns="http://www.w3.org/2000/svg">
<path d="M8.31142 8.948L15.2274 1.192H18.3914L12.1194 7.996L16.3754 19H10.2714L7.80742 11.188L6.15542 19H0.107422L3.88742 1.22H9.96342L8.31142 8.948ZM18.1051 11.832H26.9251L26.3651 14.38H17.5171L18.1051 11.832ZM43.8662 19H37.8182L39.4982 11.076H36.0542L34.3742 19H28.3262L32.1062 1.22H38.1822L36.5302 8.948H39.9462L41.5982 1.22H47.7022L43.8662 19ZM62.4866 19H55.9346L55.5426 14.548H50.3626L48.3746 19H45.6586L53.9186 1.22H60.5546L62.4866 19ZM51.2866 12.504H55.3466L54.7026 4.888L51.2866 12.504ZM78.7424 19H72.1904L69.0824 6.148L66.3384 19H63.8184L67.5984 1.22H74.2904L77.2304 14.24L80.0024 1.22H82.5784L78.7424 19ZM81.8379 19L85.6179 1.22H93.1499C94.3072 1.22 95.3152 1.34133 96.1739 1.584C97.0512 1.808 97.7699 2.19067 98.3299 2.732C98.9086 3.27333 99.3379 3.98267 99.6179 4.86C99.9166 5.73733 100.066 6.81067 100.066 8.08C100.066 9.44267 99.8886 10.7773 99.5339 12.084C99.1979 13.3907 98.6286 14.5573 97.8259 15.584C97.0232 16.6107 95.9686 17.4413 94.6619 18.076C93.3739 18.692 91.7779 19 89.8739 19H81.8379ZM89.5099 17.04C90.1259 17.04 90.6672 16.788 91.1339 16.284C91.6192 15.7613 92.0299 15.108 92.3659 14.324C92.7206 13.5213 93.0099 12.644 93.2339 11.692C93.4766 10.7213 93.6632 9.788 93.7939 8.892C93.9432 7.996 94.0459 7.19333 94.1019 6.484C94.1766 5.77467 94.2139 5.27067 94.2139 4.972C94.2139 4.39333 94.0926 3.94533 93.8499 3.628C93.6259 3.292 93.2246 3.124 92.6459 3.124H91.3019L88.3059 17.04H89.5099ZM110.317 10.88H117.569L115.945 19H112.641L112.109 17.208H111.997C111.512 17.768 110.933 18.244 110.261 18.636C109.608 19.028 108.749 19.224 107.685 19.224C106.864 19.224 106.07 19.0933 105.305 18.832C104.558 18.552 103.886 18.1227 103.289 17.544C102.71 16.9467 102.244 16.172 101.889 15.22C101.534 14.268 101.357 13.12 101.357 11.776C101.357 10.32 101.581 8.93867 102.029 7.632C102.477 6.32533 103.149 5.17733 104.045 4.188C104.941 3.18 106.061 2.38667 107.405 1.808C108.749 1.22933 110.317 0.939999 112.109 0.939999C113.49 0.939999 114.694 1.09867 115.721 1.416C116.748 1.73333 117.718 2.088 118.633 2.48L117.569 7.912H112.837C112.856 7.70667 112.884 7.464 112.921 7.184C112.958 6.904 112.986 6.61467 113.005 6.316C113.024 5.99867 113.042 5.69067 113.061 5.392C113.08 5.09333 113.089 4.832 113.089 4.608C113.089 4.45867 113.08 4.29067 113.061 4.104C113.042 3.89867 112.996 3.70267 112.921 3.516C112.846 3.32933 112.734 3.18 112.585 3.068C112.436 2.93733 112.221 2.872 111.941 2.872C111.456 2.872 111.008 3.07733 110.597 3.488C110.205 3.88 109.85 4.412 109.533 5.084C109.216 5.73733 108.936 6.484 108.693 7.324C108.469 8.164 108.273 9.02267 108.105 9.9C107.956 10.7587 107.834 11.608 107.741 12.448C107.666 13.2693 107.629 13.988 107.629 14.604C107.629 14.7907 107.638 15.024 107.657 15.304C107.676 15.584 107.732 15.864 107.825 16.144C107.937 16.4053 108.086 16.6387 108.273 16.844C108.478 17.0307 108.768 17.124 109.141 17.124C109.757 17.124 110.354 16.788 110.933 16.116C111.512 15.444 111.95 14.324 112.249 12.756H109.897L110.317 10.88ZM133.854 19H127.302L126.91 14.548H121.73L119.742 19H117.026L125.286 1.22H131.922L133.854 19ZM122.654 12.504H126.714L126.07 4.888L122.654 12.504ZM155.738 19H149.522L152.098 6.904L145.462 19H141.654L140.394 6.484L137.706 19H135.186L138.966 1.22H146.106L146.974 11.244L152.35 1.22H159.546L155.738 19ZM162.591 1.22H174.379L173.931 3.348H168.219L167.043 8.752H171.831L171.383 10.852H166.595L165.307 16.844H171.019L170.599 19H158.811L162.591 1.22Z" fill="white"/>
</svg>
