<svg xmlns="http://www.w3.org/2000/svg" width="184" height="20" fill="none"><path fill="#fff" d="M17.938 5.448a5.43 5.43 0 0 1-.924 3.052c-.616.933-1.633 1.643-3.052 2.128L17.21 19h-6.244l-2.464-7.756h-.308L6.542 19H.494l3.78-17.78h7.364c.859 0 1.67.056 2.436.168.765.093 1.428.299 1.988.616a3.377 3.377 0 0 1 1.372 1.288c.336.541.504 1.26.504 2.156ZM9.874 9.452c.486 0 .896-.159 1.232-.476.355-.336.635-.737.84-1.204.224-.467.383-.961.476-1.484.093-.541.14-1.008.14-1.4 0-.485-.084-.896-.252-1.232-.168-.355-.532-.532-1.092-.532h-1.26l-1.4 6.328h1.316ZM24.261 19h-6.048l3.78-17.78h6.076L24.26 19Zm9.133 0h-6.048l3.78-17.78h6.076L33.394 19Zm3-2.548 9.212-13.104H38.55l.42-2.128h13.833L52.55 3.6l-9.129 13.272h7.364L50.394 19H35.892l.504-2.548ZM55.736 1.22h11.788l-.448 2.128h-5.712l-1.176 5.404h4.788l-.448 2.1H59.74l-1.288 5.992h5.712L63.743 19H51.955l3.78-17.78Zm25.602 9.66h7.251L86.965 19H83.66l-.531-1.792h-.113a6.827 6.827 0 0 1-1.736 1.428c-.653.392-1.511.588-2.576.588-.82 0-1.614-.13-2.38-.392a5.805 5.805 0 0 1-2.016-1.288c-.578-.597-1.045-1.372-1.4-2.324-.354-.952-.532-2.1-.532-3.444 0-1.456.224-2.837.672-4.144a9.807 9.807 0 0 1 2.016-3.444c.897-1.008 2.017-1.801 3.36-2.38 1.344-.579 2.912-.868 4.704-.868 1.382 0 2.586.159 3.612.476a29.52 29.52 0 0 1 2.913 1.064l-1.065 5.432h-4.731c.018-.205.046-.448.084-.728.037-.28.065-.57.084-.868l.055-.924c.02-.299.029-.56.029-.784 0-.15-.01-.317-.028-.504a2.082 2.082 0 0 0-.14-.588 1.02 1.02 0 0 0-.337-.448c-.149-.13-.364-.196-.644-.196-.485 0-.933.205-1.343.616-.392.392-.747.924-1.065 1.596-.317.653-.597 1.4-.84 2.24-.224.84-.42 1.699-.588 2.576-.149.859-.27 1.708-.364 2.548-.074.821-.112 1.54-.112 2.156 0 .187.01.42.029.7.018.28.074.56.167.84.113.261.262.495.449.7.205.187.494.28.867.28.617 0 1.214-.336 1.793-1.008.578-.672 1.017-1.792 1.316-3.36h-2.353l.42-1.876ZM104.873 19h-6.552l-.392-4.452h-5.18L90.761 19h-2.716l8.26-17.78h6.636L104.873 19Zm-11.2-6.496h4.06l-.644-7.616-3.416 7.616ZM126.757 19h-6.216l2.576-12.096L116.481 19h-3.808l-1.26-12.516L108.725 19h-2.52l3.78-17.78h7.14l.868 10.024 5.376-10.024h7.196L126.757 19Zm6.853-17.78h11.788l-.448 2.128h-5.712l-1.176 5.404h4.788l-.448 2.1h-4.788l-1.288 5.992h5.712l-.42 2.156H129.83l3.78-17.78Zm12.318 2.884c1.157-.168 2.203-.513 3.136-1.036.952-.523 1.708-1.139 2.268-1.848h4.284L151.808 19h-6.048l2.772-13.02h-3.024l.42-1.876Zm11.129 0c1.157-.168 2.203-.513 3.136-1.036.952-.523 1.708-1.139 2.268-1.848h4.284L162.937 19h-6.048l2.772-13.02h-3.024l.42-1.876Zm15.721 15.12c-.336 0-.756-.019-1.26-.056A11.81 11.81 0 0 1 169.95 19a15.092 15.092 0 0 1-1.596-.308 6.32 6.32 0 0 1-1.344-.56l.924-3.92h4.312c0 .13-.009.299-.028.504v.644c0 .224.009.457.028.7.037.224.084.43.14.616.075.187.177.345.308.476a.906.906 0 0 0 .56.168c.616 0 1.232-.513 1.848-1.54.616-1.045 1.111-2.735 1.484-5.068h-.28a5.346 5.346 0 0 1-1.988 1.372 6.786 6.786 0 0 1-2.436.448c-.728 0-1.353-.112-1.876-.336a3.646 3.646 0 0 1-1.26-.98 4.063 4.063 0 0 1-.7-1.456 7.506 7.506 0 0 1-.224-1.876c0-1.232.215-2.287.644-3.164a6.134 6.134 0 0 1 1.792-2.156c.747-.56 1.615-.97 2.604-1.232a12.674 12.674 0 0 1 3.192-.392c1.027 0 1.96.121 2.8.364a5.169 5.169 0 0 1 2.212 1.176c.616.541 1.092 1.27 1.428 2.184.355.915.532 2.053.532 3.416a14.53 14.53 0 0 1-.588 4.088 9.892 9.892 0 0 1-1.82 3.556c-.821 1.045-1.885 1.895-3.192 2.548-1.288.635-2.837.952-4.648.952Zm3.584-16.352c-.467 0-.868.196-1.204.588-.317.392-.588.877-.812 1.456a8.954 8.954 0 0 0-.448 1.82c-.093.653-.14 1.232-.14 1.736 0 .448.047.793.14 1.036.112.224.355.336.728.336.504 0 .933-.196 1.288-.588a5.1 5.1 0 0 0 .868-1.456c.224-.56.392-1.139.504-1.736.112-.616.168-1.13.168-1.54 0-.485-.084-.877-.252-1.176-.168-.317-.448-.476-.84-.476Z"/></svg>